<mxfile host="app.diagrams.net" agent="Mozilla/5.0 (X11; Ubuntu; Linux x86_64; rv:139.0) Gecko/20100101 Firefox/139.0" version="27.1.5">
  <diagram name="Pagina-1" id="SU850ifIlKUdHhGGcXAO">
    <mxGraphModel dx="938" dy="501" grid="1" gridSize="10" guides="1" tooltips="1" connect="1" arrows="1" fold="1" page="1" pageScale="1" pageWidth="827" pageHeight="1169" math="0" shadow="0">
      <root>
        <mxCell id="0" />
        <mxCell id="1" parent="0" />
        <mxCell id="y1h99UKeRVFHQPRYsZza-7" style="edgeStyle=none;curved=1;rounded=0;orthogonalLoop=1;jettySize=auto;html=1;entryX=0.5;entryY=0;entryDx=0;entryDy=0;fontSize=12;startSize=8;endSize=8;" edge="1" parent="1" source="y1h99UKeRVFHQPRYsZza-1" target="y1h99UKeRVFHQPRYsZza-2">
          <mxGeometry relative="1" as="geometry" />
        </mxCell>
        <mxCell id="y1h99UKeRVFHQPRYsZza-1" value="&lt;div&gt;StampaInversa([1, 2, 3, 4, 5])&lt;/div&gt;" style="rounded=0;whiteSpace=wrap;html=1;" vertex="1" parent="1">
          <mxGeometry x="60" y="130" width="200" height="30" as="geometry" />
        </mxCell>
        <mxCell id="y1h99UKeRVFHQPRYsZza-2" value="&lt;div&gt;StampaInversa([1, 2, 3, 4])&lt;/div&gt;" style="rounded=0;whiteSpace=wrap;html=1;" vertex="1" parent="1">
          <mxGeometry x="130" y="204" width="200" height="30" as="geometry" />
        </mxCell>
        <mxCell id="y1h99UKeRVFHQPRYsZza-9" style="edgeStyle=none;curved=1;rounded=0;orthogonalLoop=1;jettySize=auto;html=1;fontSize=12;startSize=8;endSize=8;" edge="1" parent="1" source="y1h99UKeRVFHQPRYsZza-3" target="y1h99UKeRVFHQPRYsZza-4">
          <mxGeometry relative="1" as="geometry" />
        </mxCell>
        <mxCell id="y1h99UKeRVFHQPRYsZza-3" value="&lt;div&gt;StampaInversa([1, 2, 3])&lt;/div&gt;" style="rounded=0;whiteSpace=wrap;html=1;" vertex="1" parent="1">
          <mxGeometry x="250" y="274" width="200" height="30" as="geometry" />
        </mxCell>
        <mxCell id="y1h99UKeRVFHQPRYsZza-10" style="edgeStyle=none;curved=1;rounded=0;orthogonalLoop=1;jettySize=auto;html=1;fontSize=12;startSize=8;endSize=8;" edge="1" parent="1" source="y1h99UKeRVFHQPRYsZza-4" target="y1h99UKeRVFHQPRYsZza-5">
          <mxGeometry relative="1" as="geometry" />
        </mxCell>
        <mxCell id="y1h99UKeRVFHQPRYsZza-4" value="&lt;div&gt;StampaInversa([1, 2])&lt;/div&gt;" style="rounded=0;whiteSpace=wrap;html=1;" vertex="1" parent="1">
          <mxGeometry x="360" y="340" width="200" height="30" as="geometry" />
        </mxCell>
        <mxCell id="y1h99UKeRVFHQPRYsZza-11" style="edgeStyle=none;curved=1;rounded=0;orthogonalLoop=1;jettySize=auto;html=1;fontSize=12;startSize=8;endSize=8;" edge="1" parent="1" source="y1h99UKeRVFHQPRYsZza-5" target="y1h99UKeRVFHQPRYsZza-6">
          <mxGeometry relative="1" as="geometry" />
        </mxCell>
        <mxCell id="y1h99UKeRVFHQPRYsZza-5" value="&lt;div&gt;StampaInversa([1])&lt;/div&gt;" style="rounded=0;whiteSpace=wrap;html=1;" vertex="1" parent="1">
          <mxGeometry x="460" y="410" width="200" height="30" as="geometry" />
        </mxCell>
        <mxCell id="y1h99UKeRVFHQPRYsZza-6" value="&lt;div&gt;StampaInversa([])&lt;/div&gt;" style="rounded=0;whiteSpace=wrap;html=1;" vertex="1" parent="1">
          <mxGeometry x="570" y="490" width="200" height="30" as="geometry" />
        </mxCell>
        <mxCell id="y1h99UKeRVFHQPRYsZza-8" style="edgeStyle=none;curved=1;rounded=0;orthogonalLoop=1;jettySize=auto;html=1;entryX=0.404;entryY=0.075;entryDx=0;entryDy=0;entryPerimeter=0;fontSize=12;startSize=8;endSize=8;" edge="1" parent="1" source="y1h99UKeRVFHQPRYsZza-2" target="y1h99UKeRVFHQPRYsZza-3">
          <mxGeometry relative="1" as="geometry" />
        </mxCell>
        <mxCell id="y1h99UKeRVFHQPRYsZza-14" value="&lt;div&gt;Stampa 5&lt;/div&gt;" style="text;html=1;align=center;verticalAlign=middle;whiteSpace=wrap;rounded=0;" vertex="1" parent="1">
          <mxGeometry x="270" y="160" width="60" height="30" as="geometry" />
        </mxCell>
        <mxCell id="y1h99UKeRVFHQPRYsZza-15" value="&lt;div&gt;Stampa 4&lt;/div&gt;" style="text;html=1;align=center;verticalAlign=middle;whiteSpace=wrap;rounded=0;" vertex="1" parent="1">
          <mxGeometry x="354" y="234" width="60" height="30" as="geometry" />
        </mxCell>
        <mxCell id="y1h99UKeRVFHQPRYsZza-16" value="&lt;div&gt;Stampa 3&lt;/div&gt;" style="text;html=1;align=center;verticalAlign=middle;whiteSpace=wrap;rounded=0;" vertex="1" parent="1">
          <mxGeometry x="460" y="300" width="60" height="30" as="geometry" />
        </mxCell>
        <mxCell id="y1h99UKeRVFHQPRYsZza-17" value="&lt;div&gt;Stampa 2&lt;/div&gt;" style="text;html=1;align=center;verticalAlign=middle;whiteSpace=wrap;rounded=0;" vertex="1" parent="1">
          <mxGeometry x="570" y="370" width="60" height="30" as="geometry" />
        </mxCell>
        <mxCell id="y1h99UKeRVFHQPRYsZza-18" value="&lt;div&gt;Stampa 1&lt;/div&gt;" style="text;html=1;align=center;verticalAlign=middle;whiteSpace=wrap;rounded=0;" vertex="1" parent="1">
          <mxGeometry x="670" y="450" width="60" height="30" as="geometry" />
        </mxCell>
      </root>
    </mxGraphModel>
  </diagram>
</mxfile>
